PathFileType	4	(X/Y/Z)	F:\MotionCapture\20160217\3\Generated_files\2_Test05-Dynamic.trc
DataRate	CameraRate	NumFrames	NumMarkers	Units	OrigDataRate	OrigDataStartFrame	OrigNumFrames
120.00	120.00	       4	39	mm	120.00	89	       704
Frame#	Time	Top.Head			Front.Head			Rear.Head			R.Shoulder			R.Offset			R.Elbow			R.Wrist			L.Shoulder			L.Elbow			L.Wrist			R.ASIS			L.ASIS			V.Sacral			R.Thigh			R.Knee			R.Shank			R.Ankle			R.Heel			R.Toe			L.Thigh			L.Knee			L.Shank			L.Ankle			L.Heel			L.Toe			R1			R2			R3			R4			R5			R6			R7			L1			L2			L3			L4			L5			L6			L7			V_Mid_ASIS			V_Pelvis_Origin			V_R.Hip_JC			V_L.Hip_JC			V_R.Knee_JC			V_L.Knee_JC			V_R.Ankle_JC			V_L.Ankle_JC			V_Mid_Hip			V_Mid_Shoulder			V_R.Hand			V_L.Hand			V_R.Toe_Offset_Static			V_L.Toe_Offset_Static			V_R.Toe_Offset			V_L.Toe_Offset			
		X1	Y1	Z1	X2	Y2	Z2	X3	Y3	Z3	X4	Y4	Z4	X5	Y5	Z5	X6	Y6	Z6	X7	Y7	Z7	X8	Y8	Z8	X9	Y9	Z9	X10	Y10	Z10	X11	Y11	Z11	X12	Y12	Z12	X13	Y13	Z13	X14	Y14	Z14	X15	Y15	Z15	X16	Y16	Z16	X17	Y17	Z17	X18	Y18	Z18	X19	Y19	Z19	X20	Y20	Z20	X21	Y21	Z21	X22	Y22	Z22	X23	Y23	Z23	X24	Y24	Z24	X25	Y25	Z25	X26	Y26	Z26	X27	Y27	Z27	X28	Y28	Z28	X29	Y29	Z29	X30	Y30	Z30	X31	Y31	Z31	X32	Y32	Z32	X33	Y33	Z33	X34	Y34	Z34	X35	Y35	Z35	X36	Y36	Z36	X37	Y37	Z37	X38	Y38	Z38	X39	Y39	Z39	

89	0.733	2446.15601	155.54099	1744.74207	2321.79370	154.65979	1681.26392	2541.50000	150.56947	1658.16919	2452.57568	355.62799	1434.15967	2565.15137	87.30003	1275.39954	2469.87012	465.39767	1113.76648	2334.35205	463.09836	887.72638	2426.64844	-54.58241	1434.05981	2425.80908	-148.31093	1108.89197	2316.15503	-128.58565	875.54913	2350.69067	310.89273	966.30878	2330.86133	23.17819	966.80811	2565.58936	152.32646	951.11676	2318.95703	278.37219	582.43353	2400.75781	327.46317	472.75272	2409.89160	259.03214	238.81590	2478.09546	332.36578	75.69551	2542.18774	270.62076	50.58842	2334.39160	323.52597	46.97807	2300.35376	66.83125	632.29694	2395.59375	12.10454	475.27911	2389.44702	84.76092	333.17447	2464.46729	15.81430	70.73163	2528.64624	73.40714	51.45366	2322.73413	24.20318	46.58688	2285.53735	306.08118	44.04874	2326.45508	286.50562	52.64299	2422.56689	246.71321	60.20601	2498.98145	241.95026	49.46811	2514.63281	315.34647	52.23489	2439.52368	345.87076	44.21018	2373.86328	365.94440	42.03074	2275.32422	49.83961	41.06467	2312.71460	63.10223	50.59193	2406.58398	104.70551	54.49474	2493.02856	105.42294	50.47565	2502.80273	32.57628	51.72826	2428.52100	3.47072	39.53400	2366.33423	-9.14704	44.31261																																																	3251.55957	130.24559	-150.09010	3014.11377	210.39961	-153.26184	
90	0.742	2446.14063	155.60791	1744.86975	2321.79932	154.63033	1681.31262	2541.57080	150.60623	1658.21716	2452.65479	355.63397	1434.12817	2565.13721	87.31695	1275.33899	2470.12939	465.02414	1113.67102	2334.67896	462.58316	887.22949	2426.66919	-54.51708	1433.95374	2425.34937	-148.06482	1108.93628	2316.73364	-129.03453	875.51587	2350.56738	310.91855	966.39825	2330.80640	23.11912	966.83331	2565.51465	152.40195	951.08307	2319.05811	278.34589	582.40704	2400.72559	327.43173	472.73688	2409.92383	259.10678	238.83304	2478.07837	332.35641	75.70737	2542.18262	270.60425	50.55819	2334.39038	323.52292	47.01363	2300.13794	66.90621	632.32892	2395.52905	12.14496	475.26279	2389.43481	84.78647	333.06384	2464.43750	15.84361	70.73023	2528.61035	73.40022	51.44872	2322.78076	24.18638	46.66699	2285.53296	306.10385	44.05893	2326.44116	286.49460	52.65287	2422.59253	246.72202	60.15248	2499.01245	241.98122	49.48131	2514.58691	315.38617	52.19981	2440.10107	344.37683	43.97381	2373.95215	365.96732	42.06132	2275.31079	49.92100	41.05385	2312.80273	63.20586	50.52140	2406.65576	104.69226	54.48125	2493.00073	105.43315	50.43006	2502.75708	32.64692	51.69051	2428.55859	3.55906	39.50330	2366.34229	-9.14130	44.33189																																																	3014.61084	210.47559	-153.37091	3251.69604	130.31744	-150.23915	
91	0.750	2446.15625	155.51030	1744.87830	2321.80933	154.59929	1681.35010	2541.55957	150.61682	1658.23096	2452.58521	355.60022	1434.10840	2565.12378	87.33102	1275.25427	2470.32886	464.86502	1113.62158	2335.20386	461.85712	886.76349	2426.76831	-54.56781	1434.03809	2425.45435	-148.10973	1109.05188	2317.12427	-129.27107	875.46063	2350.48145	310.89343	966.43695	2330.82959	23.14307	966.84290	2565.46362	152.40283	951.07263	2319.05957	278.38467	582.49518	2400.74390	327.55505	472.76575	2409.87476	259.05502	238.81360	2478.02539	332.35620	75.67327	2542.21509	270.63654	50.56858	2334.36646	323.56940	46.98478	2299.91870	66.97236	632.38373	2395.43457	12.11237	475.26416	2389.21338	84.75307	333.06644	2464.41724	15.81854	70.76700	2528.67578	73.43629	51.38317	2322.78003	24.14527	46.66669	2285.60938	306.21817	44.07366	2326.50366	286.57635	52.74760	2422.73022	246.75313	60.27680	2499.03613	241.95828	49.46128	2514.62573	315.36688	52.18213	2439.52124	345.85828	44.23594	2373.89307	365.94232	42.02069	2275.35327	49.94242	41.01631	2312.81567	63.18937	50.57891	2406.73291	104.56997	54.61325	2493.02271	105.46179	50.37085	2502.79541	32.65802	51.62122	2428.33496	5.00081	39.85926	2366.23901	-8.80889	44.35163																																																	3014.71777	210.54338	-153.31717	3249.89575	130.66206	-149.56836	
92	0.758	2446.11694	155.64534	1744.83350	2321.87915	154.69147	1681.16272	2541.59644	150.68358	1658.27856	2452.47925	355.53802	1433.99377	2565.08081	87.35010	1275.14526	2470.60181	464.60916	1113.52380	2335.87646	461.36826	886.54700	2426.78394	-54.54502	1434.04663	2425.52319	-148.22551	1109.05298	2317.32935	-129.38716	875.48132	2350.52832	310.90897	966.40106	2330.72314	23.21209	966.85229	2565.38501	152.41110	951.05377	2319.19458	278.32184	582.52124	2400.74780	327.56845	472.72220	2410.11816	259.22061	238.92099	2478.02539	332.36758	75.68066	2542.28394	270.62720	50.45407	2334.38623	323.60632	47.03001	2299.98511	66.95992	632.38062	2395.28687	12.05319	475.23788	2389.23511	84.77012	333.14233	2464.28516	15.81470	70.85077	2528.70605	73.38857	51.37097	2322.75830	24.07370	46.71814	2285.76611	306.34000	44.14400	2326.58032	286.82706	52.86495	2422.71484	246.81125	60.28965	2499.06592	242.04514	49.44838	2514.69263	315.37936	52.14659	2439.54321	345.85861	44.23822	2373.94336	365.88586	42.14461	2275.43408	49.92046	41.03775	2313.12549	63.01263	50.75109	2406.79565	104.52149	54.82128	2493.07275	105.40729	50.46274	2502.76953	32.69012	51.58980	2428.60986	3.57810	39.58431	2366.27539	-9.14747	44.36160																																																	3247.05542	131.30360	-148.88263	3015.70630	210.56854	-153.21596	
